Coordinates
version=1
nRows=22
nColumns=24
inDegrees=yes

Units are S.I. units (second, meters, Newtons, ...)
Angles are in degrees.

endheader
time	pelvis_tilt	pelvis_list	pelvis_rotation	pelvis_tx	pelvis_ty	pelvis_tz	hip_flexion_r	hip_adduction_r	hip_rotation_r	knee_angle_r	ankle_angle_r	subtalar_angle_r	mtp_angle_r	hip_flexion_l	hip_adduction_l	hip_rotation_l	knee_angle_l	ankle_angle_l	subtalar_angle_l	mtp_angle_l	lumbar_extension	lumbar_bending	lumbar_rotation
      1.03633333	     -5.06308338	     -0.70299996	      0.63549543	      0.50027655	      0.99020246	      0.31884575	     19.15627065	      4.58537370	      2.26596984	    -27.87962987	     14.71129130	    -11.24351894	     -1.28254219	     15.80983203	     -2.28680461	     -0.70406171	    -70.37043432	      0.59446921	     -5.01215973	      4.54900758	     -6.52920442	      9.01893918	     -4.40094158
      1.04050000	     -4.99711910	     -0.57430575	      0.51271660	      0.50480907	      0.99138759	      0.31919596	     18.57285490	      4.47935654	      2.34537839	    -27.41366348	     14.70931284	    -11.15214570	     -1.27435869	     16.35563863	     -2.20932758	     -0.90715715	    -70.22605724	      1.27488820	     -4.98090606	      4.48695925	     -6.62171188	      8.85443758	     -4.22300341
      1.04466667	     -4.88443130	     -0.48224219	      0.39814507	      0.50933375	      0.99259993	      0.31961767	     17.91369869	      4.42433144	      2.46931883	    -26.89335342	     14.75284103	    -11.09060910	     -1.25460733	     16.85117590	     -2.19216045	     -1.09623748	    -70.05461237	      1.94595501	     -4.70860510	      4.33312825	     -6.81692804	      8.65419110	     -3.80292072
      1.04883333	     -4.81048154	     -0.36917423	      0.26734206	      0.51385320	      0.99373388	      0.31998794	     17.31089814	      4.33871464	      2.58466985	    -26.39554069	     14.73063581	    -11.03397314	     -1.21212541	     17.37265074	     -2.13983404	     -1.29469942	    -69.82594120	      2.58568288	     -4.63460222	      3.98433883	     -6.95207383	      8.45911898	     -3.39489020
      1.05300000	     -4.72772683	     -0.24415212	      0.15238680	      0.51838169	      0.99484666	      0.32033102	     16.70414734	      4.23082351	      2.67238551	    -25.91406413	     14.77682896	    -10.93885128	     -1.19177261	     17.87561627	     -2.07820816	     -1.48556161	    -69.55089071	      3.22578088	     -4.44720593	      3.85421429	     -7.06581049	      8.26668509	     -3.22583453
      1.05716667	     -4.63992452	     -0.12437468	      0.02695465	      0.52290558	      0.99593048	      0.32067063	     16.09221571	      4.12877686	      2.77257571	    -25.42676514	     14.78944985	    -10.85952928	     -1.17151662	     18.36133540	     -2.02200441	     -1.67810021	    -69.22984838	      3.83244447	     -4.32225620	      3.71957093	     -7.19977074	      8.07316418	     -2.94657995
      1.06133333	     -4.57454909	     -0.00935771	     -0.10156055	      0.52740245	      0.99693916	      0.32098517	     15.51510044	      4.02825142	      2.87672702	    -24.95376057	     14.77089916	    -10.76828458	     -1.15623881	     18.86428793	     -1.96409796	     -1.85763085	    -68.86974145	      4.42526372	     -4.25470774	      3.62445515	     -7.32115597	      7.90067825	     -2.72540885
      1.06550000	     -4.46655552	      0.07190144	     -0.22797640	      0.53196248	      0.99799282	      0.32131949	     14.86004625	      3.96560764	      2.99291896	    -24.41657248	     14.75465252	    -10.75349297	     -1.11006039	     19.30831526	     -1.95776228	     -2.04342406	    -68.46747359	      4.94517653	     -4.17934748	      3.32044591	     -7.46589384	      7.73124010	     -2.29596161
      1.06966667	     -4.37157022	      0.20462796	     -0.35214693	      0.53649116	      0.99898260	      0.32160203	     14.25045885	      3.83609564	      3.08417808	    -23.94514381	     14.79794428	    -10.64699666	     -1.08763379	     19.75149021	     -1.88187535	     -2.21770232	    -68.00753203	      5.46795835	     -4.05639264	      3.19966602	     -7.59210540	      7.53992024	     -2.12224203
      1.07383333	     -4.26423813	      0.32222375	     -0.48416356	      0.54103343	      0.99996884	      0.32188150	     13.61988291	      3.72256446	      3.18629599	    -23.45214920	     14.80107423	    -10.56152558	     -1.06478292	     20.16801854	     -1.82288690	     -2.39034274	    -67.50335600	      5.94270107	     -4.01172371	      3.06978271	     -7.74233745	      7.35563390	     -1.84135112
      1.07800000	     -4.15159491	      0.42847666	     -0.61909509	      0.54556409	      1.00090356	      0.32213964	     12.98580085	      3.61793784	      3.29423433	    -22.96042563	     14.79494289	    -10.47559981	     -1.04325960	     20.57169931	     -1.77045568	     -2.54706820	    -66.96858667	      6.39470670	     -3.98412357	      2.94973727	     -7.90810566	      7.19457227	     -1.58102245
      1.08216667	     -4.06402780	      0.54985804	     -0.75388955	      0.55009853	      1.00177153	      0.32237340	     12.38923751	      3.49202647	      3.39820435	    -22.48991281	     14.78940254	    -10.38040269	     -1.02576078	     20.98873779	     -1.69752567	     -2.69789835	    -66.38437493	      6.79939626	     -3.99766556	      2.85577262	     -8.03091256	      7.02489313	     -1.35146635
      1.08633333	     -3.94061694	      0.63893584	     -0.88232970	      0.55466827	      1.00263996	      0.32261853	     11.73727170	      3.39909376	      3.49247559	    -21.98778381	     14.82043638	    -10.31327863	     -1.00056823	     21.35849377	     -1.66684989	     -2.84139247	    -65.77240399	      7.15772785	     -4.00006262	      2.72027029	     -8.18702538	      6.85545203	     -1.02781357
      1.09050000	     -3.84293789	      0.75143971	     -1.01972519	      0.55921623	      1.00343750	      0.32282686	     11.12870146	      3.27592152	      3.59165233	    -21.51201861	     14.82750311	    -10.22433614	     -0.97733346	     21.74177971	     -1.59812731	     -2.97132762	    -65.11271731	      7.48894641	     -4.04021083	      2.59631529	     -8.32093413	      6.68452551	     -0.76235029
      1.09466667	     -3.74054629	      0.84846057	     -1.15447871	      0.56376762	      1.00419177	      0.32302086	     10.51293936	      3.16568113	      3.68853199	    -21.03199107	     14.83969204	    -10.13148527	     -0.95394775	     22.11086136	     -1.54125233	     -3.08061058	    -64.42213999	      7.78653737	     -4.09649712	      2.47601058	     -8.46140082	      6.53316542	     -0.49488283
      1.09883333	     -3.63692784	      0.95248259	     -1.29048089	      0.56832098	      1.00490186	      0.32320141	      9.90131125	      3.04413520	      3.78045465	    -20.56235698	     14.85869075	    -10.03462605	     -0.93200061	     22.46626644	     -1.47321875	     -3.18100747	    -63.69207121	      8.05003386	     -4.17554225	      2.36262851	     -8.60066070	      6.37172153	     -0.23288445
      1.10300000	     -3.51468083	      1.05647882	     -1.42650800	      0.57287974	      1.00560393	      0.32335351	      9.26911627	      2.91636941	      3.86388889	    -20.08998783	     14.87967385	     -9.92769663	     -0.91130555	     22.78659172	     -1.39712931	     -3.26390291	    -62.92004261	      8.27718812	     -4.27369232	      2.25780281	     -8.76299197	      6.21468414	      0.02352385
      1.10716667	     -3.43014242	      1.16281347	     -1.56710910	      0.57743115	      1.00620340	      0.32348496	      8.68808622	      2.78355439	      3.95151497	    -19.63700720	     14.87184334	     -9.80405030	     -0.89700940	     23.13588574	     -1.31274944	     -3.33001120	    -62.11363841	      8.48662231	     -4.38106855	      2.18287323	     -8.88018400	      6.07238500	      0.24662535
      1.11133333	     -3.32575081	      1.24426359	     -1.69596396	      0.58199101	      1.00677508	      0.32360270	      8.07513893	      2.67331635	      4.02754343	    -19.16442636	     14.89207938	     -9.69567788	     -0.88362879	     23.45671135	     -1.25091115	     -3.37149785	    -61.28376829	      8.65577946	     -4.50653663	      2.11265644	     -9.02048962	      5.93963981	      0.49614048
      1.11550000	     -3.21090947	      1.33494841	     -1.82513179	      0.58655098	      1.00731688	      0.32370229	      7.45640002	      2.54924795	      4.10038568	    -18.70369742	     14.93096531	     -9.59779606	     -0.86926686	     23.75068353	     -1.17338877	     -3.39935376	    -60.41133916	      8.78993360	     -4.63789193	      2.03800000	     -9.17490556	      5.79453560	      0.76998426
      1.11966667	     -3.11101180	      1.42952414	     -1.95062962	      0.59111960	      1.00779311	      0.32377949	      6.85846364	      2.41698143	      4.16180945	    -18.25431267	     14.98840723	     -9.48801837	     -0.85427819	     24.04639030	     -1.08468519	     -3.40686027	    -59.50115171	      8.89154219	     -4.78406262	      1.96385905	     -9.30715345	      5.65514642	      1.03123139
      1.12383333	     -2.98680662	      1.49596631	     -2.06761838	      0.59568967	      1.00826053	      0.32385149	      6.22028736	      2.31222725	      4.22233405	    -17.77484714	     15.03049751	     -9.38178678	     -0.83837289	     24.30658645	     -1.02297061	     -3.38984918	    -58.56711041	      8.97408253	     -4.93264637	      1.88184942	     -9.47760338	      5.52621479	      1.30540328
